<svg width="40" height="38" viewBox="0 0 40 38" fill="none" xmlns="http://www.w3.org/2000/svg">
<g filter="url(#filter0_d_10_68)">
<path d="M20 23.5714L18.6329 22.3383C13.7771 17.9755 10.5714 15.0981 10.5714 11.5668C10.5714 8.68937 12.8531 6.42857 15.7571 6.42857C17.3977 6.42857 18.9723 7.18528 20 8.38108C21.0277 7.18528 22.6023 6.42857 24.2429 6.42857C27.1469 6.42857 29.4286 8.68937 29.4286 11.5668C29.4286 15.0981 26.2229 17.9755 21.3671 22.3476L20 23.5714Z" fill="#682BFB"/>
<path d="M18.9677 21.967L18.967 21.9663C16.529 19.7758 14.5462 17.9934 13.1668 16.3224C11.7931 14.6582 11.0714 13.1667 11.0714 11.5668C11.0714 8.96984 13.1249 6.92857 15.7571 6.92857C17.248 6.92857 18.6855 7.61867 19.6208 8.70698L20 9.14819L20.3792 8.70698C21.3145 7.61867 22.752 6.92857 24.2429 6.92857C26.8751 6.92857 28.9286 8.96984 28.9286 11.5668C28.9286 13.1667 28.2069 14.6583 26.833 16.3237C25.4555 17.9936 23.4762 19.7757 21.0428 21.9668L21.0337 21.9751L21.0326 21.976L20.0013 22.8992L18.9677 21.967Z" stroke="#682BFB"/>
</g>
<defs>
<filter id="filter0_d_10_68" x="0.571426" y="0.42857" width="38.8571" height="37.1429" filterUnits="userSpaceOnUse" color-interpolation-filters="sRGB">
<feFlood flood-opacity="0" result="BackgroundImageFix"/>
<feColorMatrix in="SourceAlpha" type="matrix" values="0 0 0 0 0 0 0 0 0 0 0 0 0 0 0 0 0 0 127 0" result="hardAlpha"/>
<feOffset dy="4"/>
<feGaussianBlur stdDeviation="5"/>
<feComposite in2="hardAlpha" operator="out"/>
<feColorMatrix type="matrix" values="0 0 0 0 0.407843 0 0 0 0 0.168627 0 0 0 0 0.984314 0 0 0 0.16 0"/>
<feBlend mode="normal" in2="BackgroundImageFix" result="effect1_dropShadow_10_68"/>
<feBlend mode="normal" in="SourceGraphic" in2="effect1_dropShadow_10_68" result="shape"/>
</filter>
</defs>
</svg>
