<svg width="61" height="30" viewBox="0 0 61 30" fill="none" xmlns="http://www.w3.org/2000/svg">
<g clip-path="url(#clip0_89_1338)">
<path d="M1.08 16.32V13.32H9.29V10.32H0V7.38H9.29V4.19H12.75V7.38H22.42V10.31H12.75V13.31H21.39V16.31L1.08 16.32ZM16.73 29V27.94H5.63V29.4H2.27V18.32H20.15V29H16.73ZM5.63 25.15H16.73V21.15H5.63V25.15Z" fill="#682BFB"/>
<path d="M26.1301 15.56V9.46999H30.6001V8.46999H24.6001V5.64999H30.6001V4.23999H33.8201V5.64999H38.5601V4.23999H41.7801V5.64999H47.6001V8.46999H41.7801V9.46999H46.0001V15.56H26.1301ZM44.2201 21.68C39.8101 26.61 34.1501 28.75 26.4801 29.56L24.8901 26.72C27.4515 26.6037 29.9929 26.2114 32.4701 25.55C31.6225 24.8671 30.7155 24.2614 29.7601 23.74C28.9801 24.06 28.1601 24.36 27.4101 24.66L25.4601 22.17C28.0071 21.5117 30.4291 20.4409 32.6301 19H28.3301V21H25.1301V16.48H47.1301V21.06H43.9001V19H37.1501L36.0701 20H42.1901L44.2201 21.68ZM29.3501 13.29H31.8501V11.83H29.3501V13.29ZM32.7701 22.29L32.4401 22.45C33.4979 23.0899 34.5013 23.8156 35.4401 24.62C36.7916 24.0549 38.0389 23.2674 39.1301 22.29H32.7701ZM33.7701 9.50999H38.5101V8.50999H33.8201L33.7701 9.50999ZM34.6101 13.33H37.2101V11.83H34.6101V13.33ZM40.0301 11.87V13.33H42.7101V11.83L40.0301 11.87Z" fill="#682BFB"/>
<path d="M56.25 0V12.38" stroke="#682BFB" stroke-width="0.66" stroke-miterlimit="10"/>
<path d="M60.9601 6.19H51.5601" stroke="#682BFB" stroke-width="0.66" stroke-miterlimit="10"/>
<path d="M53.5 8.94003L59.16 3.28003" stroke="#682BFB" stroke-width="0.66" stroke-miterlimit="10"/>
<path d="M53.5 3.28003L59.16 8.94003" stroke="#682BFB" stroke-width="0.66" stroke-miterlimit="10"/>
</g>
<defs>
<clipPath id="clip0_89_1338">
<rect width="60.96" height="29.56" fill="white"/>
</clipPath>
</defs>
</svg>
