<svg width="40" height="38" viewBox="0 0 40 38" fill="none" xmlns="http://www.w3.org/2000/svg">
<g filter="url(#filter0_d_10_73)">
<path d="M19.3026 21.5957L19.3012 21.5944C16.8531 19.3948 14.9028 17.6399 13.5524 16.0041C12.2133 14.3819 11.5714 13.0009 11.5714 11.5668C11.5714 9.25032 13.3967 7.42857 15.7571 7.42857C17.0983 7.42857 18.3987 8.05207 19.2416 9.03288L20 9.91531L20.7584 9.03288C21.6013 8.05207 22.9016 7.42857 24.2429 7.42857C26.6033 7.42857 28.4286 9.25032 28.4286 11.5668C28.4286 13.0009 27.7867 14.382 26.4473 16.0055C25.097 17.6425 23.1469 19.3995 20.699 21.6036C20.6987 21.6039 20.6983 21.6042 20.698 21.6045L20.0025 22.227L19.3026 21.5957Z" stroke="#682BFB" stroke-width="2" shape-rendering="crispEdges"/>
</g>
<defs>
<filter id="filter0_d_10_73" x="0.571426" y="0.428574" width="38.8571" height="37.1429" filterUnits="userSpaceOnUse" color-interpolation-filters="sRGB">
<feFlood flood-opacity="0" result="BackgroundImageFix"/>
<feColorMatrix in="SourceAlpha" type="matrix" values="0 0 0 0 0 0 0 0 0 0 0 0 0 0 0 0 0 0 127 0" result="hardAlpha"/>
<feOffset dy="4"/>
<feGaussianBlur stdDeviation="5"/>
<feComposite in2="hardAlpha" operator="out"/>
<feColorMatrix type="matrix" values="0 0 0 0 0.407843 0 0 0 0 0.168627 0 0 0 0 0.984314 0 0 0 0.16 0"/>
<feBlend mode="normal" in2="BackgroundImageFix" result="effect1_dropShadow_10_73"/>
<feBlend mode="normal" in="SourceGraphic" in2="effect1_dropShadow_10_73" result="shape"/>
</filter>
</defs>
</svg>
